<svg xmlns="http://www.w3.org/2000/svg" version="1.1" xmlns:xlink="http://www.w3.org/1999/xlink" xmlns:svgjs="http://svgjs.com/svgjs" width="1440" height="560" preserveAspectRatio="none" viewBox="0 0 1440 560"><g mask="url(&quot;#SvgjsMask1001&quot;)" fill="none"><rect width="1440" height="560" x="0" y="0" fill="rgba(255, 255, 255, 1)"></rect><path d="M -923.4666376778664,451 C -827.47,385.6 -635.47,148 -443.46663767786646,124 C -251.47,100 -155.47,311.6 36.53336232213354,331 C 228.53,350.4 324.53,190.2 516.5333623221336,221 C 708.53,251.8 811.84,486 996.5333623221336,485 C 1181.23,484 1351.31,269.8 1440,216" stroke="rgba(51, 121, 194, 0.58)" stroke-width="2"></path><path d="M -218.1685485905262,209 C -122.17,241.2 69.83,367.2 261.8314514094738,370 C 453.83,372.8 549.83,223.8 741.8314514094739,223 C 933.83,222.2 1029.83,377.4 1221.8314514094739,366 C 1413.83,354.6 1658.2,180.8 1701.8314514094739,166 C 1745.47,151.2 1492.37,266.8 1440,292" stroke="rgba(51, 121, 194, 0.58)" stroke-width="2"></path><path d="M -512.5174980468795,180 C -416.52,202.6 -224.52,288 -32.51749804687947,293 C 159.48,298 255.48,175.8 447.4825019531205,205 C 639.48,234.2 735.48,440.6 927.4825019531205,439 C 1119.48,437.4 1304.98,185.6 1407.4825019531206,197 C 1509.99,208.4 1433.5,436.2 1440,496" stroke="rgba(51, 121, 194, 0.58)" stroke-width="2"></path><path d="M -109.44867597727898,148 C -13.45,186 178.55,314.2 370.551324022721,338 C 562.55,361.8 658.55,235.4 850.551324022721,267 C 1042.55,298.6 1138.55,521 1330.551324022721,496 C 1522.55,471 1788.66,149.6 1810.551324022721,142 C 1832.44,134.4 1514.11,394.8 1440,458" stroke="rgba(51, 121, 194, 0.58)" stroke-width="2"></path></g><defs><mask id="SvgjsMask1001"><rect width="1440" height="560" fill="#ffffff"></rect></mask></defs></svg>